<svg width="24" height="24" viewBox="0 0 24 24" fill="none" xmlns="http://www.w3.org/2000/svg">
<g clip-path="url(#clip0_5238_1679)">
<path d="M12.0006 10.0275C11.0319 10.0268 10.1031 9.64184 9.41802 8.95701C8.73295 8.27217 8.34764 7.34347 8.34668 6.37481C8.34668 5.39042 8.73098 3.90171 9.30076 2.67001C9.83418 1.5171 10.7361 0.144775 12.0006 0.144775C13.265 0.144775 14.167 1.5171 14.7004 2.67001C15.2702 3.90171 15.6532 5.39042 15.6532 6.37481C15.6523 7.34326 15.2671 8.27178 14.5823 8.95658C13.8975 9.64138 12.969 10.0265 12.0006 10.0275ZM12.0006 1.30738C10.8804 1.30738 9.5117 4.70183 9.5117 6.37481C9.5117 6.70165 9.57608 7.02529 9.70116 7.32726C9.82623 7.62922 10.0096 7.90359 10.2407 8.1347C10.4718 8.36581 10.7462 8.54914 11.0481 8.67422C11.3501 8.7993 11.6737 8.86367 12.0006 8.86367C12.3274 8.86367 12.6511 8.7993 12.953 8.67422C13.255 8.54914 13.5293 8.36581 13.7605 8.1347C13.9916 7.90359 14.1749 7.62922 14.3 7.32726C14.4251 7.02529 14.4894 6.70165 14.4894 6.37481C14.4894 5.6838 14.1997 4.35753 13.6408 3.15857C13.1147 2.01657 12.4855 1.30738 12.0006 1.30738Z" fill="#ffffff"/>
<path d="M6.01538 14.3808C5.63083 14.3801 5.24877 14.3191 4.88308 14.2002C3.94718 13.8959 2.6488 13.0715 1.6535 12.1478C0.722452 11.2846 -0.305583 10.0032 0.0859917 8.80059C0.477566 7.59798 2.06205 7.16398 3.32285 7.01365C4.66972 6.8512 6.2045 6.94698 7.1404 7.25611C7.96643 7.5259 8.66932 8.08115 9.123 8.82229C9.57668 9.56343 9.75148 10.442 9.61603 11.3003C9.48059 12.1587 9.04377 12.9407 8.38391 13.5061C7.72406 14.0715 6.88435 14.3834 6.01538 14.3857V14.3808ZM4.65032 8.09988C4.25368 8.09911 3.85735 8.12219 3.46347 8.16898C2.21359 8.31809 1.34436 8.69876 1.19525 9.15943C1.04614 9.62011 1.52257 10.4396 2.44514 11.2979C3.41498 12.1963 4.58607 12.8824 5.24314 13.0958C5.87107 13.2998 6.55433 13.246 7.1426 12.9462C7.73087 12.6465 8.17597 12.1253 8.37998 11.4974C8.58398 10.8694 8.53019 10.1862 8.23043 9.5979C7.93066 9.00963 7.40949 8.56453 6.78155 8.36052C6.32451 8.2102 5.53045 8.09988 4.65032 8.09988Z" fill="#ffffff"/>
<path d="M5.8033 23.1555C5.38715 23.1673 4.97826 23.0449 4.63706 22.8064C3.61387 22.0632 3.69146 20.4218 3.93756 19.1695C4.19942 17.8359 4.76556 16.4091 5.34383 15.6126C5.91325 14.8287 6.77074 14.3031 7.72766 14.1515C8.68458 13.9998 9.66255 14.2345 10.4464 14.804C11.2303 15.3734 11.7559 16.2309 11.9075 17.1878C12.0591 18.1447 11.8244 19.1227 11.255 19.9066C10.6755 20.703 9.49113 21.6826 8.30549 22.3433C7.56841 22.7615 6.64221 23.1555 5.8033 23.1555ZM8.30428 15.2755C8.17233 15.2758 8.0406 15.2864 7.91028 15.3071C7.58711 15.3572 7.2771 15.471 6.99824 15.6418C6.71938 15.8127 6.47722 16.0372 6.28579 16.3024C5.87967 16.8612 5.33535 18.1051 5.07955 19.401C4.83709 20.6364 4.92801 21.5832 5.32201 21.8644C5.71601 22.1457 6.641 21.9469 7.73935 21.3334C8.89346 20.6897 9.90816 19.7877 10.3143 19.2289C10.5838 18.8577 10.7456 18.4194 10.7818 17.9621C10.818 17.5049 10.7272 17.0465 10.5194 16.6376C10.3116 16.2287 9.99496 15.8851 9.60429 15.6448C9.21363 15.4044 8.76417 15.2767 8.30549 15.2755H8.30428Z" fill="#ffffff"/>
<path d="M18.1978 23.1556C17.3589 23.1556 16.4327 22.7616 15.6956 22.3494C14.51 21.6887 13.3244 20.7091 12.7461 19.9127C12.4641 19.5245 12.2614 19.0847 12.1494 18.6182C12.0375 18.1517 12.0185 17.6677 12.0936 17.1939C12.2453 16.237 12.7708 15.3795 13.5547 14.8101C14.3386 14.2406 15.3165 14.0059 16.2735 14.1576C17.2304 14.3092 18.0879 14.8348 18.6573 15.6187C19.2356 16.4152 19.8005 17.8445 20.0636 19.1756C20.306 20.4218 20.3872 22.0633 19.3641 22.8125C19.0221 23.0489 18.6133 23.1691 18.1978 23.1556ZM13.6868 19.2289C14.093 19.7878 15.1077 20.6897 16.2618 21.3335C17.3613 21.9469 18.2875 22.1506 18.6791 21.8645C19.0707 21.5784 19.164 20.6364 18.9216 19.4011C18.6658 18.1051 18.1214 16.8552 17.7153 16.3024C17.3221 15.7819 16.7403 15.4366 16.0951 15.3405C15.4499 15.2445 14.7928 15.4055 14.265 15.7889C13.7373 16.1723 13.381 16.7474 13.2729 17.3907C13.1648 18.034 13.3134 18.6941 13.6868 19.2289Z" fill="#ffffff"/>
<path d="M17.9857 14.3808C17.1167 14.3785 16.277 14.0666 15.6171 13.5012C14.9573 12.9358 14.5205 12.1538 14.385 11.2954C14.2496 10.4371 14.4244 9.55854 14.878 8.81741C15.3317 8.07627 16.0346 7.52102 16.8606 7.25123C17.7978 6.94694 19.3325 6.85117 20.6794 7.00877C21.9402 7.15909 23.5259 7.59189 23.9163 8.7957C24.3066 9.99952 23.2774 11.2846 22.35 12.1465C21.3559 13.0703 20.0575 13.8947 19.1216 14.1989C18.7548 14.3186 18.3715 14.3799 17.9857 14.3808ZM19.295 8.09984C18.5082 8.09984 17.7505 8.18592 17.2207 8.35806C16.5928 8.56207 16.0716 9.00717 15.7718 9.59544C15.4721 10.1837 15.4183 10.867 15.6223 11.4949C15.8263 12.1228 16.2714 12.644 16.8597 12.9438C17.4479 13.2435 18.1312 13.2973 18.7591 13.0933C20.3521 12.5757 23.1549 10.225 22.8094 9.1594C22.5767 8.44899 20.8746 8.09984 19.2937 8.09984H19.295Z" fill="#ffffff"/>
<path d="M12.0007 16.4782C11.2475 16.4785 10.5111 16.2553 9.88473 15.837C9.25835 15.4187 8.7701 14.824 8.48174 14.1282C8.19338 13.4323 8.11787 12.6666 8.26476 11.9278C8.41165 11.1891 8.77433 10.5105 9.30695 9.97784C9.83956 9.44523 10.5182 9.08255 11.2569 8.93566C11.9957 8.78877 12.7614 8.86428 13.4573 9.15264C14.1531 9.441 14.7478 9.92924 15.1661 10.5556C15.5844 11.182 15.8076 11.9184 15.8074 12.6716C15.8061 13.6808 15.4046 14.6483 14.691 15.3619C13.9774 16.0755 13.0099 16.477 12.0007 16.4782ZM12.0007 10.0276C11.4777 10.0273 10.9664 10.1822 10.5314 10.4726C10.0965 10.763 9.75739 11.1758 9.55708 11.6589C9.35677 12.1421 9.30424 12.6737 9.40612 13.1867C9.50801 13.6997 9.75973 14.1709 10.1295 14.5408C10.4992 14.9107 10.9703 15.1626 11.4832 15.2648C11.9962 15.3669 12.5278 15.3146 13.0111 15.1145C13.4943 14.9144 13.9073 14.5755 14.1979 14.1407C14.4884 13.7059 14.6435 13.1946 14.6435 12.6716C14.6426 11.9709 14.3639 11.2991 13.8685 10.8035C13.3731 10.3079 12.7015 10.0289 12.0007 10.0276Z" fill="#ffffff"/>
</g>
<defs>
<clipPath id="clip0_5238_1679">
<rect width="24" height="23.012" fill="white" transform="translate(0 0.143555)"/>
</clipPath>
</defs>
</svg>
